<?xml version="1.0" encoding="utf-8"?>
<!-- Generator: Fusion 360, Shaper Origin Export Add-In, Version 1.8.0  -->
<svg xmlns="http://www.w3.org/2000/svg" xmlns:xlink="http://www.w3.org/1999/xlink" xmlns:shaper="http://www.shapertools.com/namespaces/shaper" shaper:fusionaddin="version:1.8.0" width="150cm" height="300cm" version="1.1" x="0cm" y="0cm" viewBox="0 0 150 300" enable-background="new 0 0 150 300" xml:space="preserve">
<path d="M-3.2301135,-116.4065042 L-18.2301135,-107.7462501 -33.2301135,-116.4065042 -33.2301135,-133.7270122 -18.2301135,-142.3872663 -3.2301135,-133.7270122 -3.2301135,-116.4065042z" transform="matrix(1,0,0,-1,75,150)" stroke="rgb(100,100,100)" stroke-width="0.0010cm" stroke-linecap="round" stroke-linejoin="round" fill="none" />
<path d="M-50.8663752,-85.059556 L-50.8663752,-102.3800641 -35.8663752,-111.0403181 -20.8663752,-102.3800641 -20.8663752,-85.059556 -35.8663752,-76.399302 -50.8663752,-85.059556z"      transform="matrix(1,0,0,-1,75,150)" stroke="rgb(100,100,100)" stroke-width="0.0010cm" stroke-linecap="round" stroke-linejoin="round" fill="none" />
<path d="M17.9841865,-107.7462501 L2.9841865,-116.4065042 2.9841865,-133.7270122 17.9841865,-142.3872663 32.9841865,-133.7270122 32.9841865,-116.4065042 17.9841865,-107.7462501z"       transform="matrix(1,0,0,-1,75,150)" stroke="rgb(100,100,100)" stroke-width="0.0010cm" stroke-linecap="round" stroke-linejoin="round" fill="none" />
<path d="M0.1807748,-76.399302 L-14.8192252,-85.059556 -14.8192252,-102.3800641 0.1807748,-111.0403181 15.1807748,-102.3800641 15.1807748,-85.059556 0.1807748,-76.399302z"              transform="matrix(1,0,0,-1,75,150)" stroke="rgb(100,100,100)" stroke-width="0.0010cm" stroke-linecap="round" stroke-linejoin="round" fill="none" />
<path d="M36.2279248,-76.399302 L21.2279248,-85.059556 21.2279248,-102.3800641 36.2279248,-111.0403181 51.2279248,-102.3800641 51.2279248,-85.059556 36.2279248,-76.399302z"             transform="matrix(1,0,0,-1,75,150)" stroke="rgb(100,100,100)" stroke-width="0.0010cm" stroke-linecap="round" stroke-linejoin="round" fill="none" />
<path d="M-18.2301135,-45.4135751 L-33.2301135,-54.0738292 -33.2301135,-71.3943372 -18.2301135,-80.0545913 -3.2301135,-71.3943372 -3.2301135,-54.0738292 -18.2301135,-45.4135751z"       transform="matrix(1,0,0,-1,75,150)" stroke="rgb(100,100,100)" stroke-width="0.0010cm" stroke-linecap="round" stroke-linejoin="round" fill="none" />
<path d="M17.9841865,-80.0545913 L32.9841865,-71.3943372 32.9841865,-54.0738292 17.9841865,-45.4135751 2.9841865,-54.0738292 2.9841865,-71.3943372 17.9841865,-80.0545913z"              transform="matrix(1,0,0,-1,75,150)" stroke="rgb(100,100,100)" stroke-width="0.0010cm" stroke-linecap="round" stroke-linejoin="round" fill="none" />
<path d="M-18.2301135,16.9190999 L-33.2301135,8.2588458 -33.2301135,-9.0616622 -18.2301135,-17.7219163 -3.2301135,-9.0616622 -3.2301135,8.2588458 -18.2301135,16.9190999z"               transform="matrix(1,0,0,-1,75,150)" stroke="rgb(100,100,100)" stroke-width="0.0010cm" stroke-linecap="round" stroke-linejoin="round" fill="none" />
<path d="M17.9841865,-17.7219163 L32.9841865,-9.0616622 32.9841865,8.2588458 17.9841865,16.9190999 2.9841865,8.2588458 2.9841865,-9.0616622 17.9841865,-17.7219163z"                     transform="matrix(1,0,0,-1,75,150)" stroke="rgb(100,100,100)" stroke-width="0.0010cm" stroke-linecap="round" stroke-linejoin="round" fill="none" />
<path d="M-18.2301135,79.2517749 L-33.2301135,70.5915208 -33.2301135,53.2710128 -18.2301135,44.6107587 -3.2301135,53.2710128 -3.2301135,70.5915208 -18.2301135,79.2517749z"              transform="matrix(1,0,0,-1,75,150)" stroke="rgb(100,100,100)" stroke-width="0.0010cm" stroke-linecap="round" stroke-linejoin="round" fill="none" />
<path d="M17.9841865,44.6107587 L32.9841865,53.2710128 32.9841865,70.5915208 17.9841865,79.2517749 2.9841865,70.5915208 2.9841865,53.2710128 17.9841865,44.6107587z"                     transform="matrix(1,0,0,-1,75,150)" stroke="rgb(100,100,100)" stroke-width="0.0010cm" stroke-linecap="round" stroke-linejoin="round" fill="none" />
<path d="M-18.2301135,141.5844499 L-33.2301135,132.9241958 -33.2301135,115.6036878 -18.2301135,106.9434337 -3.2301135,115.6036878 -3.2301135,132.9241958 -18.2301135,141.5844499z"       transform="matrix(1,0,0,-1,75,150)" stroke="rgb(100,100,100)" stroke-width="0.0010cm" stroke-linecap="round" stroke-linejoin="round" fill="none" />
<path d="M17.9841865,106.9434337 L32.9841865,115.6036878 32.9841865,132.9241958 17.9841865,141.5844499 2.9841865,132.9241958 2.9841865,115.6036878 17.9841865,106.9434337z"              transform="matrix(1,0,0,-1,75,150)" stroke="rgb(100,100,100)" stroke-width="0.0010cm" stroke-linecap="round" stroke-linejoin="round" fill="none" />
<path d="M-50.8663752,-22.7668227 L-50.8663752,-40.0873307 -35.8663752,-48.7475848 -20.8663752,-40.0873307 -20.8663752,-22.7668227 -35.8663752,-14.1065686 -50.8663752,-22.7668227z"     transform="matrix(1,0,0,-1,75,150)" stroke="rgb(100,100,100)" stroke-width="0.0010cm" stroke-linecap="round" stroke-linejoin="round" fill="none" />
<path d="M-14.8192252,-22.7668227 L-14.8192252,-40.0873307 0.1807748,-48.7475848 15.1807748,-40.0873307 15.1807748,-22.7668227 0.1807748,-14.1065686 -14.8192252,-22.7668227z"           transform="matrix(1,0,0,-1,75,150)" stroke="rgb(100,100,100)" stroke-width="0.0010cm" stroke-linecap="round" stroke-linejoin="round" fill="none" />
<path d="M21.2279248,-22.7668227 L21.2279248,-40.0873307 36.2279248,-48.7475848 51.2279248,-40.0873307 51.2279248,-22.7668227 36.2279248,-14.1065686 21.2279248,-22.7668227z"            transform="matrix(1,0,0,-1,75,150)" stroke="rgb(100,100,100)" stroke-width="0.0010cm" stroke-linecap="round" stroke-linejoin="round" fill="none" />
<path d="M-50.8663752,39.5259107 L-50.8663752,22.2054026 -35.8663752,13.5451486 -20.8663752,22.2054026 -20.8663752,39.5259107 -35.8663752,48.1861647 -50.8663752,39.5259107z"            transform="matrix(1,0,0,-1,75,150)" stroke="rgb(100,100,100)" stroke-width="0.0010cm" stroke-linecap="round" stroke-linejoin="round" fill="none" />
<path d="M-14.8192252,39.5259107 L-14.8192252,22.2054026 0.1807748,13.5451486 15.1807748,22.2054026 15.1807748,39.5259107 0.1807748,48.1861647 -14.8192252,39.5259107z"                  transform="matrix(1,0,0,-1,75,150)" stroke="rgb(100,100,100)" stroke-width="0.0010cm" stroke-linecap="round" stroke-linejoin="round" fill="none" />
<path d="M21.2279248,39.5259107 L21.2279248,22.2054026 36.2279248,13.5451486 51.2279248,22.2054026 51.2279248,39.5259107 36.2279248,48.1861647 21.2279248,39.5259107z"                   transform="matrix(1,0,0,-1,75,150)" stroke="rgb(100,100,100)" stroke-width="0.0010cm" stroke-linecap="round" stroke-linejoin="round" fill="none" />
<path d="M-50.8663752,101.818644 L-50.8663752,84.4981359 -35.8663752,75.8378819 -20.8663752,84.4981359 -20.8663752,101.818644 -35.8663752,110.478898 -50.8663752,101.818644z"            transform="matrix(1,0,0,-1,75,150)" stroke="rgb(100,100,100)" stroke-width="0.0010cm" stroke-linecap="round" stroke-linejoin="round" fill="none" />
<path d="M-14.8192252,101.818644 L-14.8192252,84.4981359 0.1807748,75.8378819 15.1807748,84.4981359 15.1807748,101.818644 0.1807748,110.478898 -14.8192252,101.818644z"                  transform="matrix(1,0,0,-1,75,150)" stroke="rgb(100,100,100)" stroke-width="0.0010cm" stroke-linecap="round" stroke-linejoin="round" fill="none" />
<path d="M21.2279248,101.818644 L21.2279248,84.4981359 36.2279248,75.8378819 51.2279248,84.4981359 51.2279248,101.818644 36.2279248,110.478898 21.2279248,101.818644z"                   transform="matrix(1,0,0,-1,75,150)" stroke="rgb(100,100,100)" stroke-width="0.0010cm" stroke-linecap="round" stroke-linejoin="round" fill="none" />
</svg>